<svg width="14" height="13" viewBox="0 0 14 13" fill="none" xmlns="http://www.w3.org/2000/svg">
<path d="M0.573293 6.78846L5.29628 11.8898C5.61632 12.1821 6.23002 12.3028 6.58773 11.9648C6.94006 11.6319 6.92958 10.9862 6.57858 10.652L3.25772 7.06977L12.7865 7.06977C13.2756 7.06977 13.6667 6.66673 13.6667 6.16955C13.6667 5.67238 13.2756 5.26933 12.7865 5.26933L3.25772 5.26933L6.57858 1.68716C6.88076 1.37944 6.93661 0.711051 6.58773 0.374321C6.23894 0.0376201 5.60319 0.145193 5.29628 0.449366L0.573293 5.55064C0.411679 5.72522 0.332923 5.93004 0.333454 6.16955C0.341719 6.3841 0.428593 6.63207 0.573293 6.78846Z" fill="#7D7D7D"/>
</svg>
