<svg width="24" height="24" viewBox="0 0 24 24" fill="none" xmlns="http://www.w3.org/2000/svg">
<path d="M4.28794 12.9461L9.95553 19.0677C10.3396 19.4185 11.076 19.5634 11.5053 19.1577C11.9281 18.7582 11.9155 17.9834 11.4943 17.5823L7.50925 13.2837H18.9438C19.5307 13.2837 20 12.8001 20 12.2035C20 11.6068 19.5307 11.1232 18.9438 11.1232L7.50925 11.1232L11.4943 6.82458C11.8569 6.45532 11.9239 5.65325 11.5053 5.24918C11.0867 4.84514 10.3238 4.97422 9.95553 5.33923L4.28794 11.4608C4.094 11.6703 3.9995 11.916 4.00013 12.2035C4.01005 12.4609 4.1143 12.7585 4.28794 12.9461Z" fill="#252525"/>
</svg>
