<svg width="25" height="15" viewBox="0 0 25 15" fill="none" xmlns="http://www.w3.org/2000/svg">
<path d="M0.333313 7.5C2.22808 3.11 6.90474 0 12.3809 0C17.8571 0 22.5338 3.11 24.4286 7.5C22.5338 11.89 17.8571 15 12.3809 15C6.90474 15 2.22808 11.89 0.333313 7.5Z" fill="#DBDBDB"/>
<path d="M17 7.5C17 9.98528 14.9853 12 12.5 12C10.0147 12 8 9.98528 8 7.5C8 5.01472 10.0147 3 12.5 3C14.9853 3 17 5.01472 17 7.5ZM10.0672 7.5C10.0672 8.8436 11.1564 9.93281 12.5 9.93281C13.8436 9.93281 14.9328 8.8436 14.9328 7.5C14.9328 6.1564 13.8436 5.06719 12.5 5.06719C11.1564 5.06719 10.0672 6.1564 10.0672 7.5Z" fill="#F2F2F2"/>
</svg>
